<svg width="50" height="50" xmlns="http://www.w3.org/2000/svg"><g fill="none" fill-rule="evenodd"><rect width="192" height="84" rx="14" transform="translate(-17 -17)" stroke="#F0F0F0"/><rect width="43" height="42" rx="4.199" transform="translate(3.5 4)" fill="#2396ED"/><g fill="#FFF"><path d="M36.267 23.32c-.327.181-.615.378-.932.51a7.112 7.112 0 01-2.727.516c-7.585.004-14.32.006-21.901.003-.603.003-1.717.176-1.707 1.44.01 1.262.183 1.907.51 3.13.354 1.326.885 2.577 1.737 3.685.1.13 1.676 1.988 3.973 2.686 2.368.72 4.869.849 7.359.603.957-.085 1.909-.22 2.851-.401 4.344-.887 7.792-3.051 10.2-6.671.877-1.316 1.561-2.723 2.142-4.178.09-.226.208-.299.453-.283a6.81 6.81 0 001.03-.006c1.561-.143 2.813-.785 3.612-2.123.206-.344.193-.38-.183-.542-.905-.388-1.859-.452-2.83-.361-.444.04-.884.116-1.36.18-.08-1.64-.873-2.87-2.25-3.782-.864 1.083-1.675 3.561.023 5.594z" fill-rule="nonzero"/><path d="M29.596 20.562h3.269v3.151h-3.27zm-4.577 0h3.269v3.151h-3.27zm0-3.781h3.269v3.151h-3.27zm0-3.781h3.269v3.151h-3.27zm-4.577 7.562h3.269v3.151h-3.27zm0-3.781h3.269v3.151h-3.27zm-4.577 3.781h3.269v3.151h-3.27zm0-3.781h3.269v3.151h-3.27zm-4.576 3.781h3.269v3.151h-3.27z"/></g></g></svg>