<?xml version="1.0" encoding="UTF-8"?>
<svg xmlns="http://www.w3.org/2000/svg" xmlns:xlink="http://www.w3.org/1999/xlink" width="50px" height="50px" viewBox="0 0 50 50" version="1.1">
<defs>
<clipPath id="clip1">
  <path d="M 0 0.0625 L 49.9375 0.0625 L 49.9375 50 L 0 50 Z M 0 0.0625 "/>
</clipPath>
</defs>
<g id="surface1">
<g clip-path="url(#clip1)" clip-rule="nonzero">
<path style=" stroke:none;fill-rule:nonzero;fill:rgb(94.117647%,23.529412%,18.039216%);fill-opacity:1;" d="M 48.996094 22.808594 L 27.195312 1.003906 C 25.9375 -0.253906 23.898438 -0.253906 22.644531 1.003906 L 18.117188 5.53125 L 23.859375 11.273438 C 25.238281 10.808594 26.761719 11.160156 27.789062 12.191406 C 28.824219 13.226562 29.175781 14.761719 28.695312 16.144531 L 34.234375 21.679688 C 35.617188 21.199219 37.152344 21.550781 38.1875 22.589844 C 39.683594 24.082031 39.683594 26.503906 38.1875 28 C 36.691406 29.496094 34.269531 29.496094 32.773438 28 C 31.679688 26.90625 31.351562 25.265625 31.941406 23.835938 L 26.777344 18.675781 L 26.777344 32.261719 C 27.882812 32.808594 28.660156 33.851562 28.859375 35.070312 C 29.058594 36.285156 28.660156 37.523438 27.789062 38.398438 C 26.296875 39.890625 23.871094 39.890625 22.378906 38.398438 C 20.882812 36.902344 20.882812 34.480469 22.378906 32.984375 C 22.734375 32.625 23.160156 32.339844 23.628906 32.148438 L 23.628906 18.4375 C 22.6875 18.050781 21.9375 17.300781 21.550781 16.359375 C 21.160156 15.417969 21.160156 14.359375 21.554688 13.417969 L 15.890625 7.757812 L 0.941406 22.703125 C -0.3125 23.960938 -0.3125 25.996094 0.941406 27.253906 L 22.746094 49.058594 C 24.003906 50.3125 26.039062 50.3125 27.292969 49.058594 L 48.996094 27.355469 C 50.253906 26.097656 50.253906 24.0625 48.996094 22.808594 "/>
</g>
</g>
</svg>
