<?xml version="1.0" encoding="UTF-8"?>
<svg xmlns="http://www.w3.org/2000/svg" xmlns:xlink="http://www.w3.org/1999/xlink" width="50px" height="52px" viewBox="0 0 50 51" version="1.1">
<g id="surface1">
<path style=" stroke:none;fill-rule:nonzero;fill:rgb(100%,17.647059%,12.54902%);fill-opacity:1;" d="M 49.882812 11.636719 C 49.902344 11.703125 49.910156 11.773438 49.910156 11.84375 L 49.910156 22.722656 C 49.910156 23.007812 49.757812 23.269531 49.507812 23.410156 L 40.25 28.667969 L 40.25 39.089844 C 40.25 39.375 40.097656 39.636719 39.847656 39.777344 L 20.527344 50.753906 C 20.480469 50.777344 20.433594 50.792969 20.386719 50.808594 C 20.367188 50.816406 20.351562 50.828125 20.332031 50.832031 C 20.195312 50.867188 20.054688 50.867188 19.917969 50.832031 C 19.894531 50.824219 19.875 50.8125 19.855469 50.804688 C 19.8125 50.789062 19.765625 50.777344 19.722656 50.753906 L 0.402344 39.777344 C 0.152344 39.636719 0 39.375 0 39.089844 L 0 6.449219 C 0 6.378906 0.0117188 6.308594 0.0273438 6.242188 C 0.0351562 6.21875 0.046875 6.199219 0.0546875 6.175781 C 0.0703125 6.132812 0.0859375 6.089844 0.109375 6.050781 C 0.121094 6.027344 0.144531 6.003906 0.164062 5.980469 C 0.1875 5.949219 0.207031 5.917969 0.234375 5.890625 C 0.257812 5.867188 0.289062 5.851562 0.3125 5.828125 C 0.34375 5.804688 0.367188 5.78125 0.402344 5.761719 L 10.0625 0.273438 C 10.3125 0.132812 10.617188 0.132812 10.867188 0.273438 L 20.527344 5.761719 C 20.5625 5.78125 20.589844 5.804688 20.617188 5.828125 C 20.644531 5.847656 20.671875 5.867188 20.695312 5.886719 C 20.722656 5.917969 20.742188 5.949219 20.769531 5.980469 C 20.785156 6.003906 20.808594 6.027344 20.820312 6.050781 C 20.84375 6.089844 20.859375 6.132812 20.875 6.175781 C 20.882812 6.199219 20.898438 6.21875 20.902344 6.242188 C 20.921875 6.308594 20.929688 6.378906 20.929688 6.449219 L 20.929688 26.835938 L 28.980469 22.265625 L 28.980469 11.84375 C 28.980469 11.773438 28.992188 11.703125 29.007812 11.636719 C 29.015625 11.613281 29.027344 11.589844 29.035156 11.570312 C 29.050781 11.527344 29.066406 11.484375 29.089844 11.445312 C 29.105469 11.417969 29.125 11.398438 29.144531 11.375 C 29.167969 11.34375 29.1875 11.3125 29.214844 11.28125 C 29.238281 11.261719 29.269531 11.242188 29.292969 11.222656 C 29.324219 11.199219 29.351562 11.175781 29.382812 11.15625 L 39.042969 5.667969 C 39.292969 5.527344 39.597656 5.527344 39.847656 5.667969 L 49.507812 11.15625 C 49.542969 11.175781 49.566406 11.199219 49.597656 11.222656 C 49.625 11.242188 49.652344 11.261719 49.675781 11.28125 C 49.703125 11.3125 49.722656 11.34375 49.75 11.375 C 49.765625 11.398438 49.789062 11.417969 49.800781 11.445312 C 49.824219 11.484375 49.839844 11.527344 49.855469 11.570312 C 49.863281 11.589844 49.875 11.613281 49.882812 11.636719 Z M 48.300781 22.265625 L 48.300781 13.214844 L 44.921875 15.136719 L 40.25 17.789062 L 40.25 26.835938 Z M 38.640625 38.632812 L 38.640625 29.578125 L 34.046875 32.167969 L 20.929688 39.550781 L 20.929688 48.691406 Z M 1.609375 7.824219 L 1.609375 38.632812 L 19.320312 48.691406 L 19.320312 39.554688 L 10.066406 34.386719 L 10.0625 34.382812 C 10.03125 34.367188 10.003906 34.339844 9.972656 34.316406 C 9.949219 34.296875 9.921875 34.28125 9.898438 34.261719 L 9.894531 34.257812 C 9.871094 34.234375 9.851562 34.203125 9.828125 34.175781 C 9.808594 34.148438 9.785156 34.125 9.769531 34.097656 L 9.769531 34.09375 C 9.75 34.0625 9.738281 34.027344 9.726562 33.996094 C 9.714844 33.964844 9.695312 33.9375 9.6875 33.90625 C 9.679688 33.867188 9.675781 33.828125 9.671875 33.789062 C 9.667969 33.757812 9.660156 33.730469 9.660156 33.699219 L 9.660156 12.394531 L 4.992188 9.742188 Z M 10.464844 1.878906 L 2.417969 6.449219 L 10.464844 11.019531 L 18.511719 6.449219 Z M 14.652344 30.402344 L 19.320312 27.75 L 19.320312 7.824219 L 15.941406 9.742188 L 11.269531 12.394531 L 11.269531 32.324219 Z M 39.445312 7.273438 L 31.398438 11.84375 L 39.445312 16.414062 L 47.492188 11.84375 Z M 38.640625 17.789062 L 33.972656 15.136719 L 30.589844 13.214844 L 30.589844 22.265625 L 35.257812 24.917969 L 38.640625 26.835938 Z M 20.125 38.179688 L 31.925781 31.53125 L 37.828125 28.207031 L 29.785156 23.640625 L 20.527344 28.898438 L 12.089844 33.691406 Z M 20.125 38.179688 "/>
</g>
</svg>
