<?xml version="1.0" encoding="UTF-8"?>
<svg xmlns="http://www.w3.org/2000/svg" xmlns:xlink="http://www.w3.org/1999/xlink" width="100px" height="50px" viewBox="0 0 100 50" version="1.1">
<g id="surface1">
<path style=" stroke:none;fill-rule:nonzero;fill:rgb(0%,0%,0%);fill-opacity:1;" d="M 7.578125 11.121094 L 21.78125 11.121094 C 25.953125 11.15625 28.972656 12.359375 30.847656 14.726562 C 32.71875 17.09375 33.335938 20.328125 32.699219 24.425781 C 32.453125 26.300781 31.90625 28.136719 31.058594 29.9375 C 30.246094 31.738281 29.113281 33.363281 27.664062 34.8125 C 25.898438 36.652344 24.007812 37.816406 21.996094 38.3125 C 19.980469 38.808594 17.894531 39.054688 15.742188 39.054688 L 9.382812 39.054688 L 7.367188 49.125 L 0 49.125 L 7.578125 11.121094 M 13.78125 17.164062 L 10.601562 33.066406 C 10.8125 33.101562 11.023438 33.117188 11.234375 33.117188 C 11.484375 33.117188 11.730469 33.117188 11.976562 33.117188 C 15.371094 33.152344 18.195312 32.816406 20.457031 32.109375 C 22.71875 31.367188 24.238281 28.789062 25.015625 24.371094 C 25.652344 20.664062 25.015625 18.523438 23.109375 17.960938 C 21.234375 17.394531 18.886719 17.128906 16.058594 17.164062 C 15.636719 17.199219 15.230469 17.21875 14.839844 17.21875 C 14.488281 17.21875 14.117188 17.21875 13.726562 17.21875 L 13.78125 17.164062 "/>
<path style=" stroke:none;fill-rule:nonzero;fill:rgb(0%,0%,0%);fill-opacity:1;" d="M 41.09375 1 L 48.40625 1 L 46.339844 11.121094 L 52.910156 11.121094 C 56.515625 11.195312 59.199219 11.9375 60.96875 13.347656 C 62.769531 14.761719 63.300781 17.449219 62.558594 21.40625 L 59.007812 39.054688 L 51.585938 39.054688 L 54.980469 22.199219 C 55.332031 20.433594 55.226562 19.179688 54.660156 18.4375 C 54.097656 17.695312 52.878906 17.324219 51.003906 17.324219 L 45.121094 17.269531 L 40.773438 39.054688 L 33.460938 39.054688 L 41.09375 1 "/>
<path style=" stroke:none;fill-rule:nonzero;fill:rgb(0%,0%,0%);fill-opacity:1;" d="M 70.410156 11.121094 L 84.617188 11.121094 C 88.785156 11.15625 91.804688 12.359375 93.679688 14.726562 C 95.550781 17.09375 96.171875 20.328125 95.535156 24.425781 C 95.285156 26.300781 94.738281 28.136719 93.890625 29.9375 C 93.078125 31.738281 91.949219 33.363281 90.5 34.8125 C 88.730469 36.652344 86.84375 37.816406 84.828125 38.3125 C 82.8125 38.808594 80.730469 39.054688 78.574219 39.054688 L 72.214844 39.054688 L 70.199219 49.125 L 62.832031 49.125 L 70.410156 11.121094 M 76.613281 17.164062 L 73.433594 33.066406 C 73.644531 33.101562 73.855469 33.117188 74.070312 33.117188 C 74.316406 33.117188 74.5625 33.117188 74.8125 33.117188 C 78.203125 33.152344 81.03125 32.816406 83.289062 32.109375 C 85.550781 31.367188 87.070312 28.789062 87.847656 24.371094 C 88.484375 20.664062 87.847656 18.523438 85.941406 17.960938 C 84.066406 17.394531 81.71875 17.128906 78.890625 17.164062 C 78.46875 17.199219 78.0625 17.21875 77.671875 17.21875 C 77.320312 17.21875 76.949219 17.21875 76.558594 17.21875 L 76.613281 17.164062 "/>
</g>
</svg>
