<svg width="50" height="50" fill="none" xmlns="http://www.w3.org/2000/svg"><path d="M40.768 9.565c-3.906-5.59-11.622-7.247-17.198-3.693l-9.797 6.243a11.24 11.24 0 00-5.09 7.525 12.025 12.025 0 00-.188 2.101 11.875 11.875 0 001.369 5.498 11.296 11.296 0 00-1.68 4.2 11.981 11.981 0 002.053 9.058c3.906 5.59 11.639 7.247 17.198 3.693l9.787-6.243a11.215 11.215 0 005.076-7.531c.126-.693.19-1.395.188-2.099a11.885 11.885 0 00-1.352-5.49 11.296 11.296 0 001.681-4.197 11.957 11.957 0 00-2.047-9.058v-.007z" fill="#FF3E00"/><path d="M22.612 41.024a7.77 7.77 0 01-8.35-3.098 7.19 7.19 0 01-1.232-5.446c.058-.31.137-.615.237-.914l.184-.562.5.38a12.71 12.71 0 003.834 1.917l.363.11-.034.363v.188c-.001.454.14.897.404 1.267a2.336 2.336 0 001.923 1.026c.2.001.397-.024.59-.075.212-.056.416-.145.602-.263l9.787-6.275a2.054 2.054 0 00.954-1.742 2.173 2.173 0 00-.414-1.264 2.345 2.345 0 00-2.516-.93 2.051 2.051 0 00-.599.263l-3.731 2.383a7.21 7.21 0 01-1.989.872 7.78 7.78 0 01-8.35-3.095 7.206 7.206 0 01-1.231-5.445 6.786 6.786 0 013.053-4.53l9.797-6.24a7.188 7.188 0 011.99-.876 7.873 7.873 0 011.957-.246 7.785 7.785 0 016.412 3.34 7.206 7.206 0 011.325 4.19 7.535 7.535 0 01-.11 1.264c-.058.31-.137.615-.236.914l-.185.561-.5-.366a12.631 12.631 0 00-3.834-1.917l-.363-.113.035-.363v-.188c0-.455-.142-.899-.404-1.27a2.345 2.345 0 00-1.924-1.007 2.27 2.27 0 00-.582.09 2.018 2.018 0 00-.603.263l-9.797 6.24a2.053 2.053 0 00-.92 1.37c-.025.12-.04.24-.045.362 0 .453.141.895.404 1.264a2.34 2.34 0 002.512.93 2.05 2.05 0 00.603-.263l3.738-2.396a7.166 7.166 0 011.989-.873 7.785 7.785 0 018.352 3.095 7.206 7.206 0 011.23 5.46 6.773 6.773 0 01-3.054 4.528l-9.78 6.24a7.19 7.19 0 01-1.992.877z" fill="#fff"/></svg>